<?xml version="1.0" standalone="no"?>
<!DOCTYPE svg PUBLIC "-//W3C//DTD SVG 20010904//EN"
 "http://www.w3.org/TR/2001/REC-SVG-20010904/DTD/svg10.dtd">
<svg version="1.0" xmlns="http://www.w3.org/2000/svg"
 width="234.000000pt" height="234.000000pt" viewBox="0 0 234.000000 234.000000"
 preserveAspectRatio="xMidYMid meet">
<metadata>
Created by potrace 1.11, written by Peter Selinger 2001-2013
</metadata>
<g transform="translate(0.000000,234.000000) scale(0.100000,-0.100000)"
fill="#000000" stroke="none">
<path d="M1400 1525 c-97 -27 -234 -91 -324 -151 -65 -42 -130 -59 -333 -84
-205 -25 -320 -51 -428 -94 -92 -37 -219 -116 -235 -146 -46 -87 83 -244 219
-266 53 -8 54 9 2 24 -58 18 -111 81 -111 132 0 35 6 47 43 83 24 23 67 55 96
71 l53 28 -55 -53 c-41 -40 -57 -64 -62 -92 -12 -64 32 -107 111 -107 39 0 39
-1 19 36 -43 83 18 174 154 229 56 23 157 44 288 60 75 10 76 25 1 26 l-63 0
75 23 c78 23 154 58 165 76 3 5 33 10 66 10 75 0 149 26 225 79 132 92 207
110 347 86 130 -22 250 -61 359 -116 33 -17 67 -29 76 -27 39 9 -222 121 -378
163 -107 28 -233 32 -310 10z m-633 -311 c-3 -3 -12 -4 -19 -1 -8 3 -5 6 6 6
11 1 17 -2 13 -5z"/>
<path d="M2226 1338 c-32 -16 -68 -22 -173 -28 -152 -9 -209 -29 -275 -97 -36
-38 -36 -38 -22 -72 l15 -35 59 62 c89 94 123 105 286 97 119 -7 135 -5 178
13 57 26 62 52 13 70 -41 15 -34 15 -81 -10z"/>
<path d="M1200 1320 c-14 -4 -51 -8 -82 -9 -43 -1 -58 -5 -58 -15 0 -24 50
-56 89 -57 24 -1 11 -6 -42 -15 -123 -20 -120 -24 13 -19 108 3 147 9 285 46
141 37 173 43 272 43 62 1 113 4 113 7 0 9 -116 29 -167 29 -56 0 -182 -25
-278 -55 -99 -31 -104 -31 -77 -2 33 35 29 57 -10 56 -18 -1 -44 -5 -58 -9z"/>
<path d="M762 1023 c-23 -71 -42 -131 -42 -135 0 -5 13 -8 29 -8 25 0 31 5 36
30 6 28 10 30 50 30 39 0 43 -2 49 -30 5 -25 10 -30 36 -30 20 0 30 5 30 15 0
11 11 15 35 15 22 0 38 -6 41 -15 4 -9 19 -15 35 -15 17 0 32 6 35 15 4 11 21
15 55 15 37 0 49 -4 49 -15 0 -9 9 -15 25 -15 18 0 25 5 25 19 0 14 9 20 36
23 29 3 39 0 51 -19 10 -15 25 -23 44 -23 24 0 28 4 31 32 4 40 29 48 47 14
17 -30 51 -46 102 -46 47 0 89 35 89 75 0 21 -5 25 -29 25 -23 0 -30 -5 -33
-22 -3 -26 -41 -36 -64 -18 -17 15 -19 40 -1 40 32 0 206 105 194 117 -3 2
-19 -3 -36 -12 -26 -13 -31 -13 -31 -1 0 8 -14 26 -31 40 -67 57 -162 18 -177
-73 -12 -75 -32 -63 -32 18 l0 71 -30 0 -29 0 -3 -76 -3 -77 -44 77 c-38 67
-47 76 -72 76 l-29 0 0 -80 0 -80 -35 0 c-19 0 -35 4 -35 8 0 8 29 96 45 135
6 14 2 17 -27 17 -33 0 -34 -1 -53 -72 -11 -39 -25 -73 -32 -75 -7 -3 -18 20
-28 54 -9 32 -18 66 -21 76 -4 12 -16 17 -39 17 l-34 0 15 -35 c21 -50 18 -51
-25 -12 -32 29 -91 57 -121 57 -3 0 -24 -57 -48 -127z m818 62 c19 -23 6 -41
-39 -53 -36 -9 -41 -8 -41 7 0 25 29 61 49 61 10 0 24 -7 31 -15z m-721 -97
c1 -5 -10 -8 -24 -8 -28 0 -30 4 -13 51 l11 33 13 -34 c7 -19 13 -38 13 -42z
m421 10 c0 -4 -7 -8 -15 -8 -10 0 -15 10 -15 28 1 26 1 26 15 8 8 -11 15 -23
15 -28z"/>
</g>
</svg>
